<?xml version="1.0" encoding="utf-8"?>
<!-- Generator: Adobe Illustrator 15.1.0, SVG Export Plug-In . SVG Version: 6.00 Build 0)  -->
<!DOCTYPE svg PUBLIC "-//W3C//DTD SVG 1.1//EN" "http://www.w3.org/Graphics/SVG/1.1/DTD/svg11.dtd">
<svg version="1.1" id="Layer_2" xmlns="http://www.w3.org/2000/svg" xmlns:xlink="http://www.w3.org/1999/xlink" x="0px" y="0px"
	 width="29.667px" height="29.611px" viewBox="-0.7 -1.15 28.667 29.0" enable-background="new 0.039 0 26.667 26.611"
	 xml:space="preserve">
<path d="M2.289,2.218v22.177c0,1.228,0.992,2.218,2.217,2.218h18.573c0.767,0,1.387-0.62,1.387-1.387
	c0-0.766-0.62-1.385-1.387-1.385H6.169c-0.609,0-1.108-0.5-1.108-1.109s0.499-1.108,1.108-1.108h16.08
	c1.226,0,2.217-0.992,2.217-2.218V2.218C24.465,0.993,23.474,0,22.249,0h-7.763v9.975c0,0.145-0.056,0.287-0.161,0.398
	c-0.217,0.217-0.572,0.217-0.787,0c-0.145-0.149-2.379-2.007-2.379-2.007s-2.234,1.856-2.379,2.007c-0.216,0.217-0.57,0.217-0.787,0
	c-0.105-0.111-0.16-0.255-0.16-0.398V0H4.506C3.281,0,2.289,0.993,2.289,2.218z"/>
</svg>
