<?xml version="1.0" encoding="utf-8"?>
<!-- Generator: Adobe Illustrator 15.1.0, SVG Export Plug-In . SVG Version: 6.00 Build 0)  -->
<!DOCTYPE svg PUBLIC "-//W3C//DTD SVG 1.1//EN" "http://www.w3.org/Graphics/SVG/1.1/DTD/svg11.dtd">
<svg version="1.1" id="Layer_2" xmlns="http://www.w3.org/2000/svg" xmlns:xlink="http://www.w3.org/1999/xlink" x="0px" y="0px"
	 width="26.613px" height="26.613px" viewBox="0 0 26.613 19.407" enable-background="new 0 0 26.613 19.407" xml:space="preserve">
<path d="M11.088,1.405c-1.591-1.559-5.3-2.187-7.39,0.056C1.652,3.645,0,8.911,0,13.879c0,5.992,5.023,6.824,7.763,3.881
	c1.585-1.707,1.734-1.975,2.771-3.326h5.544c1.043,1.354,1.188,1.619,2.772,3.326c2.737,2.943,7.762,2.111,7.762-3.881
	c0-4.968-1.653-10.234-3.698-12.418c-2.09-2.241-5.793-1.614-7.39-0.056c-0.616,0.598-2.218,0.831-2.218,0.831
	S11.704,2.003,11.088,1.405z M8.871,5.063V6.67h1.607c0.644,0,1.165,0.5,1.165,1.109c0,0.61-0.521,1.108-1.165,1.108H8.871v1.609
	c0,0.643-0.499,1.164-1.108,1.164c-0.61,0-1.109-0.521-1.109-1.164V8.889H5.046c-0.644,0-1.165-0.498-1.165-1.108
	c0-0.609,0.521-1.109,1.165-1.109h1.607V5.063c0-0.643,0.499-1.164,1.109-1.164C8.372,3.899,8.871,4.421,8.871,5.063z M18.851,5.84
	c0-0.766,0.621-1.385,1.386-1.385s1.387,0.619,1.387,1.385c0,0.766-0.622,1.386-1.387,1.386S18.851,6.605,18.851,5.84z
	 M16.078,9.167c0-0.766,0.621-1.387,1.387-1.387s1.387,0.621,1.387,1.387c0,0.765-0.621,1.386-1.387,1.386
	S16.078,9.932,16.078,9.167z"/>
</svg>
