<?xml version="1.0" encoding="utf-8"?>
<!-- Generator: Adobe Illustrator 15.1.0, SVG Export Plug-In . SVG Version: 6.00 Build 0)  -->
<!DOCTYPE svg PUBLIC "-//W3C//DTD SVG 1.1//EN" "http://www.w3.org/Graphics/SVG/1.1/DTD/svg11.dtd">
<svg version="1.1" id="Layer_2" xmlns="http://www.w3.org/2000/svg" xmlns:xlink="http://www.w3.org/1999/xlink" x="0px" y="0px"
	 width="28.575px" height="28.953px" viewBox="0.6 0 28.575 28.953" enable-background="new 0 0 28.575 28.953" xml:space="preserve">
<path d="M2.518,15.247c0,6.276,5.09,11.364,11.366,11.364c6.277,0,11.367-5.088,11.367-11.364c0-2.146-0.922-4.873-1.664-6.031
	c-0.644-0.993-0.865-1.631-0.865-2.563c0-1.94,2.046-3.882,4.191-3.882h0.276c0.765,0,1.386-0.619,1.386-1.385
	C28.575,0.62,27.954,0,27.189,0h-0.276c-3.41,0-6.326,1.819-7.021,5.545c-1.419-1.075-3.626-1.664-6.009-1.664
	C7.607,3.881,2.518,8.972,2.518,15.247z M12.497,15.247c0-0.765,0.622-1.386,1.387-1.386c0.765,0,1.386,0.621,1.386,1.386
	c0,0.765-0.621,1.386-1.386,1.386C13.118,16.633,12.497,16.012,12.497,15.247z M5.29,15.247c0-1.381,1.114-2.495,2.495-2.495
	c1.381,0,2.495,1.114,2.495,2.495s-1.114,2.495-2.495,2.495C6.404,17.742,5.29,16.628,5.29,15.247z M17.487,15.247
	c0-1.381,1.114-2.495,2.494-2.495c1.381,0,2.495,1.114,2.495,2.495s-1.114,2.495-2.495,2.495
	C18.601,17.742,17.487,16.628,17.487,15.247z M11.388,21.346c0-1.381,1.114-2.494,2.495-2.494c1.38,0,2.495,1.113,2.495,2.494
	s-1.113,2.495-2.495,2.495C12.502,23.841,11.388,22.727,11.388,21.346z M11.388,9.148c0-1.38,1.114-2.495,2.495-2.495
	c1.38,0,2.495,1.115,2.495,2.495c0,1.381-1.113,2.495-2.495,2.495C12.502,11.644,11.388,10.529,11.388,9.148z"/>
</svg>
