<?xml version="1.0" encoding="utf-8"?>
<!-- Generator: Adobe Illustrator 15.1.0, SVG Export Plug-In . SVG Version: 6.00 Build 0)  -->
<!DOCTYPE svg PUBLIC "-//W3C//DTD SVG 1.1//EN" "http://www.w3.org/Graphics/SVG/1.1/DTD/svg11.dtd">
<svg version="1.1" id="Layer_2" xmlns="http://www.w3.org/2000/svg" xmlns:xlink="http://www.w3.org/1999/xlink" x="0px" y="0px"
	 width="26.611px" height="26.714px" viewBox="0 0 26.611 26.714" enable-background="new 0 0 26.611 26.714" xml:space="preserve">
<path d="M0,23.563c0,0.765,0.621,1.386,1.386,1.386c0.671,0,1.231-0.478,1.358-1.109h0.027c0-0.608,0.499-1.106,1.108-1.106
	c0.61,0,1.108,0.498,1.108,1.106v0.556c0,1.226,0.993,2.218,2.219,2.218h2.218c1.225,0,2.217-0.992,2.217-2.218V16.08
	c0-1.226-0.992-2.219-2.217-2.219H7.208c-1.227,0-2.218,0.993-2.218,2.219v0.553c0,0.611-0.499,1.109-1.109,1.109
	c-0.609,0-1.108-0.498-1.108-1.109v-3.324c0-5.815,4.718-10.534,10.534-10.534s10.534,4.719,10.534,10.534v3.324
	c0,0.611-0.499,1.109-1.109,1.109c-0.608,0-1.108-0.498-1.108-1.109V16.08c0-1.226-0.992-2.219-2.218-2.219h-2.218
	c-1.225,0-2.217,0.993-2.217,2.219v8.315c0,1.226,0.993,2.218,2.217,2.218h2.218c1.226,0,2.218-0.992,2.218-2.218v-0.556
	c0-0.608,0.5-1.106,1.108-1.106c0.61,0,1.109,0.498,1.109,1.106h0.028c0.128,0.633,0.688,1.109,1.358,1.109
	c0.766,0,1.386-0.621,1.386-1.386V13.307C26.612,5.955,20.658,0,13.306,0C5.955,0,0,5.955,0,13.307V23.563z"/>
</svg>
