<?xml version="1.0" encoding="utf-8"?>
<!-- Generator: Adobe Illustrator 15.1.0, SVG Export Plug-In . SVG Version: 6.00 Build 0)  -->
<!DOCTYPE svg PUBLIC "-//W3C//DTD SVG 1.1//EN" "http://www.w3.org/Graphics/SVG/1.1/DTD/svg11.dtd">
<svg version="1.1" id="Layer_2" xmlns="http://www.w3.org/2000/svg" xmlns:xlink="http://www.w3.org/1999/xlink" x="0px" y="0px"
	 width="26.611px" height="28.953px" viewBox="0 0 26.611 28.953" enable-background="new 0 0 26.611 28.953" xml:space="preserve">
<path d="M0,24.395c0,1.227,0.993,2.219,2.218,2.219h22.177c1.226,0,2.218-0.992,2.218-2.219V8.872c0-1.227-0.992-2.219-2.218-2.219
	h-9.719l4.329-4.33c0.533-0.532,0.533-1.391,0-1.923c-0.532-0.532-1.392-0.532-1.923,0l-6.261,6.253h-0.027l-4.591-4.59
	c-0.532-0.533-1.392-0.533-1.924,0c-0.531,0.532-0.531,1.392,0,1.924l2.661,2.666H2.218C0.993,6.653,0,7.646,0,8.872V24.395z
	 M3.992,9.426h13.639c0.676,0,1.219,0.543,1.219,1.22v11.976c0,0.677-0.543,1.22-1.219,1.22H3.992c-0.677,0-1.22-0.543-1.22-1.22
	V10.646C2.772,9.969,3.315,9.426,3.992,9.426z M21.068,10.813c0-0.766,0.621-1.387,1.387-1.387c0.765,0,1.386,0.621,1.386,1.387
	c0,0.764-0.621,1.385-1.386,1.385C21.689,12.198,21.068,11.576,21.068,10.813z M21.068,15.247c0-0.765,0.621-1.386,1.387-1.386
	c0.765,0,1.386,0.621,1.386,1.386c0,0.765-0.621,1.386-1.386,1.386C21.689,16.633,21.068,16.012,21.068,15.247z"/>
</svg>
